<svg xmlns="http://www.w3.org/2000/svg" width="113" height="209" viewBox="0 0 113 209" fill="none">
  <style>
    .animated-path {
      transition: transform 0.3s ease-in-out;
      transform-origin: center center;
    }
    .animated-path:hover {
      transform: scale(1.3, 0.8);
    }
  </style>
  <path class="animated-path" d="M112.125 91.456C112.125 87.4282 101.364 83.9026 85.2461 81.9434C96.2561 83.9523 103.34 86.8414 103.34 89.268C103.34 93.2361 84.428 96.4932 60.3078 96.8363L56.0625 0L51.8171 96.8363C27.697 96.4932 8.78501 93.2361 8.78501 89.268C8.78501 86.8414 15.8639 83.9523 26.8789 81.9434C10.7605 83.8976 0 87.4282 0 91.456C0 97.3186 22.8131 102.122 51.7673 102.56L56.0625 208.65L60.3577 102.56C89.3069 102.122 112.125 97.3186 112.125 91.456Z" fill="black"/>
</svg>