<svg class="interactive-icon" width="77" height="74" viewBox="0 0 77 74" fill="none" xmlns="http://www.w3.org/2000/svg">
  <style>
    /* Trigger the animation only when the SVG container is hovered */
    .interactive-icon:hover .blink {
      animation: blink-effect 1.5s ease-in-out infinite;
    }

    /* The animation keyframes stay exactly the same */
    @keyframes blink-effect {
      0%, 100% { opacity: 1; }  
      50% { opacity: 0.1; }     
    }
  </style>

  <path class="blink" d="M77 36.0177H54.8629C66.9922 23.2966 73.7092 11.7111 70.4424 8.0709C67.0391 4.27784 53.8912 10.3266 39.2113 21.9111V0H37.7887V23.0466C35.6224 24.7968 33.43 26.6628 31.2354 28.6325C28.4905 31.0957 25.905 33.5731 23.5117 36.0188H0V37.4415H22.1371C10.0078 50.1625 3.29081 61.7481 6.5576 65.3883C9.96087 69.1813 23.1088 63.1325 37.7887 51.5481V73.4592H39.2113V50.4125C41.3776 48.6623 43.57 46.7964 45.7646 44.8267C48.5095 42.3635 51.0949 39.8861 53.4883 37.4404H77V36.0177ZM64.7692 13.1611C67.7423 16.4748 62.9818 25.8341 53.7438 36.0177H44.8376C41.8077 35.177 40.0521 33.4213 39.2113 30.3914V22.8708C50.9978 13.9494 61.6498 9.68573 64.7681 13.1622L64.7692 13.1611ZM31.6623 29.1074C33.7095 27.2709 35.7622 25.5524 37.7898 23.9648V30.9712C36.8901 33.6473 35.1726 35.2327 32.3415 36.0177H24.5719C26.7316 33.7237 29.1063 31.4003 31.6623 29.1074ZM12.2319 60.297C9.25881 56.9833 14.0193 47.624 23.2573 37.4404H32.9201C35.4085 38.2767 36.9534 39.8206 37.7898 42.31V50.5883C26.0033 59.5098 15.3513 63.7734 12.233 60.297H12.2319ZM45.3388 44.3506C43.2916 46.1871 41.2389 47.9057 39.2113 49.4932V42.8887C39.9975 40.0575 41.5817 38.339 44.2578 37.4404H52.4292C50.2695 39.7343 47.8948 42.0578 45.3388 44.3506Z" fill="#B64CF7"/>
</svg>